<svg xmlns="http://www.w3.org/2000/svg" viewBox="0 0 512 512">
  <rect width="512" height="512" rx="106" fill="#0d0d1a"/>
  <circle cx="256" cy="256" r="192" fill="#7c4dff" opacity="0.15"/>
  <!-- Receipt body -->
  <rect x="144" y="90" width="224" height="292" rx="20" fill="#1a1a2e" stroke="#7c4dff" stroke-width="6"/>
  <!-- Receipt lines -->
  <rect x="180" y="148" width="140" height="14" rx="7" fill="#7c4dff"/>
  <rect x="180" y="188" width="96" height="10" rx="5" fill="#4fc3f7" opacity="0.8"/>
  <rect x="180" y="218" width="118" height="10" rx="5" fill="#4fc3f7" opacity="0.65"/>
  <rect x="180" y="248" width="76" height="10" rx="5" fill="#4fc3f7" opacity="0.5"/>
  <rect x="164" y="306" width="184" height="4" fill="#7c4dff" opacity="0.4"/>
  <rect x="180" y="326" width="140" height="18" rx="9" fill="#7c4dff"/>
  <!-- Scan corners -->
  <path d="M46 46 L46 106 M46 46 L106 46" stroke="#7c4dff" stroke-width="16" stroke-linecap="round" fill="none"/>
  <path d="M466 46 L466 106 M466 46 L406 46" stroke="#7c4dff" stroke-width="16" stroke-linecap="round" fill="none"/>
  <path d="M46 466 L46 406 M46 466 L106 466" stroke="#7c4dff" stroke-width="16" stroke-linecap="round" fill="none"/>
  <path d="M466 466 L466 406 M466 466 L406 466" stroke="#7c4dff" stroke-width="16" stroke-linecap="round" fill="none"/>
</svg>
